<?xml version="1.0" standalone="no"?>
<!DOCTYPE svg PUBLIC "-//W3C//DTD SVG 20010904//EN"
 "http://www.w3.org/TR/2001/REC-SVG-20010904/DTD/svg10.dtd">
<svg version="1.0" xmlns="http://www.w3.org/2000/svg"
 width="101.000000pt" height="101.000000pt" viewBox="0 0 101.000000 101.000000"
 preserveAspectRatio="xMidYMid meet">
<metadata>
Created by potrace 1.14, written by Peter Selinger 2001-2017
</metadata>
<g transform="translate(0.000000,101.000000) scale(0.100000,-0.100000)"
fill="#000000" stroke="none">
<path d="M455 928 c-46 -16 -113 -69 -190 -149 -38 -40 -89 -92 -112 -115 -25
-24 -46 -55 -49 -73 -4 -17 -11 -34 -15 -37 -5 -3 -9 -23 -9 -45 0 -58 51
-158 99 -194 21 -17 47 -41 57 -55 24 -36 169 -163 202 -177 54 -24 183 -11
218 21 7 6 25 20 40 31 16 11 42 35 59 54 16 19 38 41 48 50 61 52 114 112
131 147 10 21 22 47 27 56 5 10 9 40 9 68 0 56 -35 139 -69 162 -11 8 -72 63
-135 123 -64 61 -133 118 -154 127 -41 19 -111 22 -157 6z"/>
</g>
</svg>
